<svg width="329" height="193" viewBox="0 0 329 193" fill="none" xmlns="http://www.w3.org/2000/svg">
<g filter="url(#filter0_d_1_3)">
<path d="M82.755 184.56C66.7123 184.56 52.9737 181.915 41.539 176.624C30.275 171.163 21.4857 163.312 15.171 153.072C9.027 142.661 5.699 130.117 5.187 115.44C5.01633 108.101 4.931 100.251 4.931 91.888C4.931 83.5253 5.01633 75.5893 5.187 68.08C5.699 53.744 9.027 41.5413 15.171 31.472C21.4857 21.4027 30.3603 13.7227 41.795 8.43199C53.4003 2.97066 67.0537 0.23999 82.755 0.23999C95.3843 0.23999 106.478 1.86132 116.035 5.10399C125.592 8.34665 133.614 12.6133 140.099 17.904C146.584 23.024 151.534 28.656 154.947 34.8C158.36 40.944 160.152 46.832 160.323 52.464C160.323 54 159.811 55.3653 158.787 56.56C157.763 57.584 156.398 58.096 154.691 58.096H122.947C121.24 58.096 119.875 57.7547 118.851 57.072C117.998 56.3893 117.23 55.3653 116.547 54C115.352 50.928 113.39 47.856 110.659 44.784C108.099 41.5413 104.6 38.8107 100.163 36.592C95.7257 34.3733 89.923 33.264 82.755 33.264C72.003 33.264 63.4697 36.08 57.155 41.712C51.011 47.344 47.683 56.56 47.171 69.36C46.659 84.0373 46.659 98.9707 47.171 114.16C47.683 127.472 51.0963 137.029 57.411 142.832C63.8963 148.635 72.515 151.536 83.267 151.536C90.2643 151.536 96.4937 150.341 101.955 147.952C107.587 145.392 112.024 141.467 115.267 136.176C118.51 130.885 120.131 124.144 120.131 115.952V109.552H92.227C90.5203 109.552 89.0697 108.955 87.875 107.76C86.6803 106.395 86.083 104.859 86.083 103.152V86.768C86.083 84.8907 86.6803 83.3547 87.875 82.16C89.0697 80.9653 90.5203 80.368 92.227 80.368H154.947C156.824 80.368 158.36 80.9653 159.555 82.16C160.75 83.3547 161.347 84.8907 161.347 86.768V114.672C161.347 129.349 158.104 141.893 151.619 152.304C145.304 162.715 136.174 170.736 124.227 176.368C112.451 181.829 98.627 184.56 82.755 184.56ZM236.893 182C235.016 182 233.48 181.403 232.285 180.208C231.09 179.013 230.493 177.477 230.493 175.6V38.384H183.901C182.194 38.384 180.744 37.7867 179.549 36.592C178.354 35.3973 177.757 33.9467 177.757 32.24V9.2C177.757 7.32266 178.354 5.78666 179.549 4.592C180.744 3.39732 182.194 2.79999 183.901 2.79999H318.045C319.922 2.79999 321.458 3.39732 322.653 4.592C323.848 5.78666 324.445 7.32266 324.445 9.2V32.24C324.445 33.9467 323.848 35.3973 322.653 36.592C321.458 37.7867 319.922 38.384 318.045 38.384H271.709V175.6C271.709 177.477 271.112 179.013 269.917 180.208C268.722 181.403 267.186 182 265.309 182H236.893Z" fill="white"/>
<path d="M41.539 176.624L40.4483 178.874L40.4687 178.883L40.4892 178.893L41.539 176.624ZM15.171 153.072L13.018 154.343L13.0303 154.364L13.0431 154.384L15.171 153.072ZM5.187 115.44L2.68768 115.498L2.68801 115.513L2.68852 115.527L5.187 115.44ZM5.187 68.08L2.68859 67.9908L2.68801 68.007L2.68765 68.0232L5.187 68.08ZM15.171 31.472L13.053 30.1438L13.0449 30.1568L13.0369 30.1698L15.171 31.472ZM41.795 8.43199L42.8448 10.7009L42.8522 10.6975L42.8595 10.694L41.795 8.43199ZM116.035 5.10399L115.232 7.47144L116.035 5.10399ZM140.099 17.904L138.519 19.8412L138.534 19.8538L138.55 19.8662L140.099 17.904ZM154.947 34.8L157.132 33.5859L157.132 33.5859L154.947 34.8ZM160.323 52.464H162.823V52.4261L162.822 52.3883L160.323 52.464ZM158.787 56.56L160.555 58.3278L160.623 58.2599L160.685 58.187L158.787 56.56ZM118.851 57.072L117.289 59.0242L117.374 59.0919L117.464 59.1521L118.851 57.072ZM116.547 54L114.217 54.9061L114.259 55.0143L114.311 55.118L116.547 54ZM110.659 44.784L108.697 46.3331L108.742 46.3904L108.79 46.4449L110.659 44.784ZM100.163 36.592L99.045 38.8281L99.045 38.8281L100.163 36.592ZM57.155 41.712L55.491 39.8463L55.4783 39.8576L55.4657 39.8691L57.155 41.712ZM47.171 69.36L44.673 69.2601L44.6725 69.2728L47.171 69.36ZM47.171 114.16L44.6724 114.244L44.6728 114.256L47.171 114.16ZM57.411 142.832L55.7194 144.673L55.7317 144.684L55.744 144.695L57.411 142.832ZM101.955 147.952L102.957 150.242L102.973 150.235L102.99 150.228L101.955 147.952ZM115.267 136.176L113.136 134.87L113.136 134.87L115.267 136.176ZM120.131 109.552H122.631V107.052H120.131V109.552ZM87.875 107.76L85.9936 109.406L86.0484 109.469L86.1072 109.528L87.875 107.76ZM151.619 152.304L149.497 150.982L149.489 150.995L149.481 151.007L151.619 152.304ZM124.227 176.368L125.279 178.636L125.286 178.633L125.293 178.629L124.227 176.368ZM82.755 182.06C66.9792 182.06 53.6174 179.458 42.5888 174.355L40.4892 178.893C52.3299 184.371 66.4455 187.06 82.755 187.06V182.06ZM42.6297 174.374C31.7753 169.112 23.3536 161.578 17.2989 151.76L13.0431 154.384C19.6178 165.046 28.7747 173.214 40.4483 178.874L42.6297 174.374ZM17.324 151.801C11.4332 141.82 8.18603 129.702 7.68548 115.353L2.68852 115.527C3.21197 130.533 6.62079 143.503 13.018 154.343L17.324 151.801ZM7.68632 115.382C7.51617 108.065 7.431 100.234 7.431 91.888H2.431C2.431 100.267 2.5165 108.138 2.68768 115.498L7.68632 115.382ZM7.431 91.888C7.431 83.5422 7.51616 75.6252 7.68635 68.1368L2.68765 68.0232C2.5165 75.5534 2.431 83.5085 2.431 91.888H7.431ZM7.68541 68.1692C8.18538 54.1699 11.4282 42.4057 17.3051 32.7742L13.0369 30.1698C6.62579 40.6769 3.21262 53.3181 2.68859 67.9908L7.68541 68.1692ZM17.289 32.8002C23.3305 23.1665 31.8221 15.801 42.8448 10.7009L40.7452 6.16309C28.8986 11.6444 19.6408 19.6389 13.053 30.1438L17.289 32.8002ZM42.8595 10.694C54.0657 5.42051 67.3409 2.73999 82.755 2.73999V-2.26001C66.7665 -2.26001 52.7349 0.520802 40.7305 6.16994L42.8595 10.694ZM82.755 2.73999C95.1769 2.73999 105.989 4.33543 115.232 7.47144L116.838 2.73654C106.967 -0.612779 95.5918 -2.26001 82.755 -2.26001V2.73999ZM115.232 7.47144C124.563 10.6374 132.307 14.7735 138.519 19.8412L141.679 15.9668C134.921 10.4531 126.622 6.05592 116.838 2.73654L115.232 7.47144ZM138.55 19.8662C144.821 24.8168 149.534 30.2052 152.762 36.0141L157.132 33.5859C153.533 27.1068 148.348 21.2312 141.648 15.9418L138.55 19.8662ZM152.762 36.0141C156.028 41.8937 157.668 47.3934 157.824 52.5397L162.822 52.3883C162.636 46.2706 160.693 39.9943 157.132 33.5859L152.762 36.0141ZM157.823 52.464C157.823 53.3875 157.535 54.1794 156.889 54.933L160.685 58.187C162.087 56.5513 162.823 54.6125 162.823 52.464H157.823ZM157.019 54.7922C156.547 55.2644 155.862 55.596 154.691 55.596V60.596C156.933 60.596 158.979 59.9036 160.555 58.3278L157.019 54.7922ZM154.691 55.596H122.947V60.596H154.691V55.596ZM122.947 55.596C121.549 55.596 120.721 55.3138 120.238 54.9919L117.464 59.1521C119.029 60.1956 120.931 60.596 122.947 60.596V55.596ZM120.413 55.1198C119.931 54.7342 119.364 54.0439 118.783 52.882L114.311 55.118C115.095 56.6868 116.065 58.0445 117.289 59.0242L120.413 55.1198ZM118.877 53.0939C117.552 49.6859 115.409 46.3645 112.528 43.1231L108.79 46.4449C111.371 49.3475 113.153 52.1701 114.217 54.9061L118.877 53.0939ZM112.621 43.2349C109.793 39.652 105.982 36.7063 101.281 34.3559L99.045 38.8281C103.219 40.915 106.405 43.4307 108.697 46.3331L112.621 43.2349ZM101.281 34.3559C96.3771 31.9039 90.1508 30.764 82.755 30.764V35.764C89.6952 35.764 95.0743 36.8427 99.045 38.8281L101.281 34.3559ZM82.755 30.764C71.5609 30.764 62.3773 33.7044 55.491 39.8463L58.819 43.5777C64.562 38.4556 72.4451 35.764 82.755 35.764V30.764ZM55.4657 39.8691C48.6218 46.1427 45.1976 56.1446 44.673 69.2601L49.669 69.4599C50.1684 56.9754 53.4002 48.5453 58.8443 43.5549L55.4657 39.8691ZM44.6725 69.2728C44.1585 84.0092 44.1586 98.9998 44.6724 114.244L49.6696 114.076C49.1594 98.9416 49.1595 84.0654 49.6695 69.4471L44.6725 69.2728ZM44.6728 114.256C45.1966 127.875 48.701 138.223 55.7194 144.673L59.1026 140.991C53.4917 135.835 50.1694 127.069 49.6692 114.064L44.6728 114.256ZM55.744 144.695C62.7891 150.999 72.051 154.036 83.267 154.036V149.036C72.979 149.036 65.0036 146.271 59.078 140.969L55.744 144.695ZM83.267 154.036C90.55 154.036 97.1296 152.792 102.957 150.242L100.953 145.662C95.8577 147.891 89.9787 149.036 83.267 149.036V154.036ZM102.99 150.228C109.077 147.461 113.896 143.197 117.399 137.482L113.136 134.87C110.153 139.736 106.097 143.323 100.92 145.676L102.99 150.228ZM117.399 137.482C120.948 131.692 122.631 124.461 122.631 115.952H117.631C117.631 123.827 116.072 130.079 113.136 134.87L117.399 137.482ZM122.631 115.952V109.552H117.631V115.952H122.631ZM120.131 107.052H92.227V112.052H120.131V107.052ZM92.227 107.052C91.1758 107.052 90.3633 106.713 89.6428 105.992L86.1072 109.528C87.7761 111.197 89.8649 112.052 92.227 112.052V107.052ZM89.7564 106.114C88.9332 105.173 88.583 104.213 88.583 103.152H83.583C83.583 105.504 84.4275 107.616 85.9936 109.406L89.7564 106.114ZM88.583 103.152V86.768H83.583V103.152H88.583ZM88.583 86.768C88.583 85.473 88.9711 84.5994 89.6428 83.9278L86.1072 80.3922C84.3896 82.1099 83.583 84.3084 83.583 86.768H88.583ZM89.6428 83.9278C90.3633 83.2073 91.1758 82.868 92.227 82.868V77.868C89.8649 77.868 87.7761 78.7234 86.1072 80.3922L89.6428 83.9278ZM92.227 82.868H154.947V77.868H92.227V82.868ZM154.947 82.868C156.242 82.868 157.116 83.2561 157.787 83.9278L161.323 80.3922C159.605 78.6746 157.407 77.868 154.947 77.868V82.868ZM157.787 83.9278C158.459 84.5994 158.847 85.473 158.847 86.768H163.847C163.847 84.3084 163.04 82.1099 161.323 80.3922L157.787 83.9278ZM158.847 86.768V114.672H163.847V86.768H158.847ZM158.847 114.672C158.847 128.975 155.69 141.04 149.497 150.982L153.741 153.626C160.518 142.747 163.847 129.724 163.847 114.672H158.847ZM149.481 151.007C143.443 160.963 134.703 168.666 123.161 174.107L125.293 178.629C137.645 172.806 147.166 164.467 153.757 153.601L149.481 151.007ZM123.175 174.1C111.794 179.378 98.3429 182.06 82.755 182.06V187.06C98.9111 187.06 113.108 184.28 125.279 178.636L123.175 174.1ZM230.493 38.384H232.993V35.884H230.493V38.384ZM179.549 36.592L177.781 38.3598L177.781 38.3598L179.549 36.592ZM179.549 4.592L181.317 6.35977L181.317 6.35976L179.549 4.592ZM322.653 4.592L320.885 6.35975L320.885 6.35977L322.653 4.592ZM271.709 38.384V35.884H269.209V38.384H271.709ZM236.893 179.5C235.598 179.5 234.724 179.112 234.053 178.44L230.517 181.976C232.235 183.693 234.433 184.5 236.893 184.5V179.5ZM234.053 178.44C233.381 177.769 232.993 176.895 232.993 175.6H227.993C227.993 178.06 228.8 180.258 230.517 181.976L234.053 178.44ZM232.993 175.6V38.384H227.993V175.6H232.993ZM230.493 35.884H183.901V40.884H230.493V35.884ZM183.901 35.884C182.85 35.884 182.037 35.5447 181.317 34.8242L177.781 38.3598C179.45 40.0286 181.539 40.884 183.901 40.884V35.884ZM181.317 34.8242C180.596 34.1037 180.257 33.2912 180.257 32.24H175.257C175.257 34.6021 176.112 36.6909 177.781 38.3598L181.317 34.8242ZM180.257 32.24V9.2H175.257V32.24H180.257ZM180.257 9.2C180.257 7.90495 180.645 7.03142 181.317 6.35977L177.781 2.82422C176.064 4.5419 175.257 6.74037 175.257 9.2H180.257ZM181.317 6.35976C182.037 5.63925 182.85 5.29999 183.901 5.29999V0.299988C181.539 0.299988 179.45 1.15539 177.781 2.82423L181.317 6.35976ZM183.901 5.29999H318.045V0.299988H183.901V5.29999ZM318.045 5.29999C319.34 5.29999 320.214 5.6881 320.885 6.35975L324.421 2.82424C322.703 1.10655 320.505 0.299988 318.045 0.299988V5.29999ZM320.885 6.35977C321.557 7.03142 321.945 7.90495 321.945 9.2H326.945C326.945 6.74036 326.138 4.54189 324.421 2.82422L320.885 6.35977ZM321.945 9.2V32.24H326.945V9.2H321.945ZM321.945 32.24C321.945 33.2912 321.606 34.1037 320.885 34.8242L324.421 38.3598C326.09 36.6909 326.945 34.6021 326.945 32.24H321.945ZM320.885 34.8242C320.214 35.4959 319.34 35.884 318.045 35.884V40.884C320.505 40.884 322.703 40.0774 324.421 38.3598L320.885 34.8242ZM318.045 35.884H271.709V40.884H318.045V35.884ZM269.209 38.384V175.6H274.209V38.384H269.209ZM269.209 175.6C269.209 176.895 268.821 177.769 268.149 178.44L271.685 181.976C273.402 180.258 274.209 178.06 274.209 175.6H269.209ZM268.149 178.44C267.478 179.112 266.604 179.5 265.309 179.5V184.5C267.769 184.5 269.967 183.693 271.685 181.976L268.149 178.44ZM265.309 179.5H236.893V184.5H265.309V179.5Z" fill="black"/>
</g>
<defs>
<filter id="filter0_d_1_3" x="0.931" y="0.23999" width="327.514" height="192.32" filterUnits="userSpaceOnUse" color-interpolation-filters="sRGB">
<feFlood flood-opacity="0" result="BackgroundImageFix"/>
<feColorMatrix in="SourceAlpha" type="matrix" values="0 0 0 0 0 0 0 0 0 0 0 0 0 0 0 0 0 0 127 0" result="hardAlpha"/>
<feOffset dy="4"/>
<feGaussianBlur stdDeviation="2"/>
<feComposite in2="hardAlpha" operator="out"/>
<feColorMatrix type="matrix" values="0 0 0 0 0 0 0 0 0 0 0 0 0 0 0 0 0 0 0.25 0"/>
<feBlend mode="normal" in2="BackgroundImageFix" result="effect1_dropShadow_1_3"/>
<feBlend mode="normal" in="SourceGraphic" in2="effect1_dropShadow_1_3" result="shape"/>
</filter>
</defs>
</svg>
